<svg
    viewBox="0 0 512 512"
    xmlns="http://www.w3.org/2000/svg"
>
    <path
        d="M 456.7 1 H 54.8 C 24.5 1 0 25.5 0 55.7 v 401.1 c 0 30.2 24.5 54.7 54.8 54.7 h 401.9 c 30.3 0 54.8 -24.5 54.8 -54.7 V 55.7 c 0 -30.2 -24.5 -54.7 -54.8 -54.7 z M 316.6 438.2 c -9.6 1.7 -13.1 -4.2 -13.1 -9.1 c 0 -6.2 0.2 -37.6 0.2 -63 c 0 -17.8 -5.9 -29.1 -12.9 -35 c 42.2 -4.7 86.8 -10.5 86.8 -83.3 c 0 -20.7 -7.4 -31.1 -19.5 -44.4 c 1.9 -4.9 8.4 -25.1 -1.9 -51.3 c -15.9 -4.9 -52.2 20.4 -52.2 20.4 c -15.1 -4.2 -31.4 -6.4 -47.5 -6.4 c -16.1 0 -32.4 2.2 -47.5 6.4 c 0 0 -36.3 -25.3 -52.2 -20.4 c -10.4 26.1 -4 46.3 -1.9 51.3 c -12.1 13.3 -17.8 23.7 -17.8 44.4 c 0 72.5 42.6 78.6 84.8 83.3 c -5.5 4.9 -10.4 13.3 -12.1 25.4 c -10.8 4.9 -38.6 13.3 -55.1 -15.8 c -10.4 -18 -29.1 -19.5 -29.1 -19.5 c -18.5 -0.2 -1.3 11.6 -1.3 11.6 c 12.3 5.7 21 27.6 21 27.6 c 11.1 33.8 64.1 22.4 64.1 22.4 c 0 15.8 0.2 41.6 0.2 46.3 c 0 4.9 -3.4 10.8 -13.1 9.1 c -75.4 -25.2 -128.1 -96.7 -128.1 -180.4 c 0 -104.6 80.2 -184 185 -184 S 443 153.2 443 257.8 c 0.1 83.6 -51 155.3 -126.4 180.4 z m -112 -69.6 c -2.2 0.5 -4.2 -0.5 -4.5 -1.9 c -0.2 -1.7 1.3 -3.2 3.4 -3.6 c 2.2 -0.2 4.2 0.7 4.5 2.2 c 0.3 1.5 -1.1 3 -3.4 3.4 z m -10.8 -1 c 0 1.5 -1.7 2.7 -4 2.7 c -2.5 0.2 -4.2 -1 -4.2 -2.7 c 0 -1.5 1.7 -2.7 4 -2.7 c 2.2 -0.2 4.2 1 4.2 2.7 z m -15.6 -1.3 c -0.5 1.5 -2.7 2.2 -4.7 1.5 c -2.2 -0.5 -3.7 -2.2 -3.2 -3.6 c 0.5 -1.5 2.7 -2.2 4.7 -1.7 c 2.3 0.7 3.8 2.4 3.2 3.9 z m -14 -6.2 c -1 1.3 -3.2 1 -4.9 -0.7 c -1.7 -1.5 -2.2 -3.6 -1 -4.7 c 1 -1.3 3.2 -1 4.9 0.7 c 1.5 1.5 2.1 3.8 1 4.7 z m -10.4 -10.4 c -1 0.7 -3 0 -4.2 -1.7 s -1.3 -3.6 0 -4.4 c 1.3 -1 3.2 -0.2 4.2 1.5 c 1.3 1.7 1.3 3.8 0 4.7 z m -7.4 -11.1 c -1 1 -2.7 0.5 -4 -0.7 c -1.3 -1.5 -1.5 -3.2 -0.5 -4 c 1 -1 2.7 -0.5 4 0.7 c 1.3 1.5 1.5 3.2 0.5 4 z m -7.6 -8.4 c -0.5 1 -1.9 1.3 -3.2 0.5 c -1.5 -0.7 -2.2 -1.9 -1.7 -3 c 0.5 -0.7 1.7 -1 3.2 -0.5 c 1.5 0.8 2.2 2.1 1.7 3 z" />
</svg>